<?xml version="1.0" standalone="no"?>
<!DOCTYPE svg PUBLIC "-//W3C//DTD SVG 20010904//EN"
 "http://www.w3.org/TR/2001/REC-SVG-20010904/DTD/svg10.dtd">
<svg version="1.0" xmlns="http://www.w3.org/2000/svg"
 width="1040.678576pt" height="744.323223pt" viewBox="0 0 1040.678576 744.323223"
 preserveAspectRatio="xMidYMid meet">
<metadata>
Created by potrace 1.12, written by Peter Selinger 2001-2015
</metadata>
<g transform="translate(-58.566438,840.855106) scale(0.100000,-0.100000)"
fill="#000000" stroke="none">
<path d="M5475 8394 c-66 -7 -389 -40 -719 -73 -368 -37 -604 -65 -613 -73 -9
-7 -13 -24 -11 -45 4 -30 2 -32 -22 -26 -33 9 -61 6 -73 -6 -26 -26 -4 -65
167 -297 l176 -239 0 -871 c0 -680 3 -874 13 -887 6 -9 248 -130 537 -268 646
-309 646 -309 669 -309 32 0 1595 421 1619 436 l22 14 0 901 0 900 30 59 c16
32 38 61 47 64 10 4 32 28 48 54 17 26 71 108 121 182 50 74 94 143 97 152 17
47 5 50 -705 197 -372 77 -684 138 -692 135 -9 -3 -75 -99 -147 -212 -73 -114
-133 -208 -135 -210 -1 -2 -52 93 -113 211 -61 118 -118 218 -127 221 -20 8
-42 6 -189 -10z m288 -265 c65 -128 115 -235 110 -238 -4 -4 -73 -18 -153 -30
-80 -12 -202 -32 -271 -43 l-127 -20 -508 141 c-280 78 -529 147 -553 154 -39
12 -45 19 -62 62 -10 27 -17 51 -14 53 2 2 134 17 292 34 158 16 477 48 708
72 231 24 429 44 440 45 16 0 42 -42 138 -230z m742 156 c149 -31 365 -76 480
-100 116 -24 282 -58 370 -76 88 -18 164 -35 168 -39 7 -6 -197 -320 -208
-320 -2 0 30 66 72 146 41 80 72 148 69 151 -3 3 -45 1 -93 -6 -123 -17 -1392
-210 -1425 -217 -26 -5 -28 -3 -28 30 0 26 18 63 78 155 42 66 109 170 147
230 48 76 75 109 85 106 8 -2 137 -29 285 -60z m-2207 -215 c171 -50 474 -140
947 -279 l70 -21 120 -235 c66 -129 121 -239 123 -243 1 -4 -233 70 -520 165
-287 96 -526 172 -531 170 -8 -2 316 -118 826 -294 l247 -86 0 -943 c0 -519
-2 -944 -5 -944 -2 0 -179 84 -392 186 -213 102 -470 224 -570 272 l-183 86 0
875 0 874 -122 166 c-133 181 -205 279 -221 299 -5 6 -6 12 -2 12 4 0 100 -27
213 -60z m3008 -277 l-116 -228 -242 -44 c-449 -80 -1330 -254 -1243 -245 66
7 1354 235 1461 259 l21 5 1 -884 2 -884 -22 -5 c-13 -2 -99 -25 -193 -50 -93
-25 -255 -68 -360 -96 -104 -28 -255 -69 -335 -90 -80 -22 -257 -70 -395 -106
-137 -37 -257 -69 -267 -71 -15 -4 -16 63 -12 955 l5 960 55 158 c132 374 126
361 154 367 15 2 269 39 566 81 296 42 638 91 759 109 121 19 233 34 248 35
28 1 28 0 -87 -226z m-1416 47 c0 -14 -7 -20 -22 -21 -39 -1 -83 -10 -89 -17
-6 -8 -37 -88 -74 -194 -15 -43 -32 -78 -37 -78 -5 0 -7 -4 -3 -9 5 -9 -60
-197 -74 -213 -3 -4 -46 72 -96 168 -99 192 -103 200 -86 190 7 -5 9 -1 4 9
-4 13 -8 14 -13 4 -5 -8 -17 6 -34 39 l-26 52 22 5 c13 2 84 14 158 26 74 11
178 29 230 39 128 25 140 25 140 0z"/>
<path d="M5620 8227 c0 -11 79 -187 103 -228 12 -21 25 -39 29 -39 13 0 -18
73 -72 170 -54 98 -60 108 -60 97z"/>
<path d="M4310 7935 c0 -14 104 -163 121 -173 19 -12 19 -12 3 19 -16 32 -112
159 -120 159 -2 0 -4 -2 -4 -5z"/>
<path d="M4526 6749 c-10 -53 -7 -497 4 -504 7 -4 10 87 10 264 0 149 -2 271
-4 271 -2 0 -6 -14 -10 -31z"/>
<path d="M6565 7525 c-49 -8 -191 -34 -314 -59 -123 -25 -228 -46 -234 -46 -6
0 -8 -2 -5 -6 13 -13 641 98 663 118 11 10 5 9 -110 -7z"/>
<path d="M6480 5715 c-109 -24 -542 -139 -532 -143 5 -1 72 11 148 29 76 17
186 42 244 54 123 28 266 73 230 73 -14 0 -54 -6 -90 -13z"/>
<path d="M8890 8365 c-151 -19 -473 -56 -715 -84 -538 -62 -503 -57 -517 -85
-9 -20 6 -62 106 -292 l116 -269 0 -876 c0 -685 3 -879 13 -891 9 -13 1100
-523 1192 -558 22 -9 229 43 1475 366 162 42 188 52 191 79 1 6 0 407 -1 891
l-2 881 127 242 c128 246 136 269 97 290 -12 6 -203 -19 -572 -75 l-555 -83
-150 35 c-82 19 -184 44 -225 55 l-75 20 -79 180 c-43 99 -85 187 -93 195 -18
18 -5 18 -333 -21z m378 -189 c40 -92 71 -170 69 -173 -4 -4 -220 45 -279 63
-10 3 -18 1 -18 -5 0 -5 68 -45 150 -88 83 -43 150 -81 150 -85 0 -5 -10 -8
-23 -8 -13 0 -96 -11 -185 -25 l-162 -26 -117 32 c-410 109 -489 129 -500 129
-11 0 -56 -36 -318 -258 -54 -46 -101 -80 -105 -75 -10 10 -220 498 -220 510
0 5 190 30 422 57 232 27 562 65 733 86 170 21 314 37 320 36 5 -1 43 -78 83
-170z m227 -242 l310 -79 -60 -8 c-42 -6 -81 -4 -135 7 -41 8 -104 18 -140 22
-53 5 -90 20 -200 76 -74 38 -124 67 -110 64 14 -2 165 -39 335 -82z m1335
-141 c-62 -120 -118 -223 -125 -228 -7 -6 -123 -30 -257 -54 -238 -42 -674
-123 -1072 -198 -109 -20 -194 -39 -188 -41 14 -4 1351 223 1490 253 l22 5 0
-882 0 -883 -223 -57 c-122 -32 -319 -83 -437 -113 -458 -119 -911 -235 -918
-235 -4 0 -6 430 -4 956 l2 955 79 208 c88 230 110 278 129 286 8 3 89 16 180
30 92 14 210 32 262 40 255 42 1118 173 1143 174 l28 1 -111 -217z m-2115 77
c310 -81 557 -149 562 -153 3 -3 -172 -436 -179 -443 -2 -1 -100 28 -218 66
-220 70 -316 100 -690 215 -118 36 -221 68 -228 71 -8 2 73 76 189 173 l203
169 45 -14 c25 -7 168 -45 316 -84z m657 -40 c-4 -41 -10 -44 -78 -43 -6 0 -9
-8 -7 -18 3 -11 3 -19 0 -19 -14 0 -239 59 -245 64 -3 3 10 6 29 7 19 0 88 11
154 24 162 31 151 32 147 -15z m125 18 c55 -15 79 -24 63 -26 -14 -2 -58 -9
-97 -16 l-73 -14 0 39 c0 22 4 39 10 39 5 0 49 -10 97 -22z m-1113 -377 c243
-77 500 -157 571 -179 l130 -40 3 -945 2 -945 -427 197 c-236 109 -495 229
-578 267 l-150 70 -3 857 c-1 471 1 857 4 857 4 0 205 -63 448 -139z"/>
<path d="M7866 7963 c42 -114 77 -180 81 -159 4 16 -90 226 -101 226 -3 0 6
-30 20 -67z"/>
<path d="M10031 7530 c-96 -14 -474 -94 -463 -98 15 -5 321 44 442 70 146 31
158 48 21 28z"/>
<path d="M10080 5711 c-123 -29 -493 -135 -482 -139 6 -2 59 9 119 23 59 15
162 39 228 55 135 33 273 79 235 78 -14 0 -59 -8 -100 -17z"/>
<path d="M8525 7519 c254 -89 441 -139 325 -88 -47 22 -465 149 -484 148 -6 0
66 -27 159 -60z"/>
<path d="M8026 6918 c-10 -40 -7 -636 4 -643 7 -4 10 108 10 329 0 185 -2 336
-4 336 -2 0 -6 -10 -10 -22z"/>
<path d="M2399 7916 c-5 -5 -522 -77 -1269 -177 -152 -21 -241 -37 -252 -46
-9 -8 -80 -116 -159 -240 -124 -197 -140 -227 -131 -247 7 -17 45 -37 141 -76
l131 -54 0 -587 c0 -323 3 -595 6 -604 4 -9 34 -29 68 -45 33 -15 309 -146
611 -290 l550 -262 105 26 c58 14 211 55 340 90 129 35 323 87 430 116 619
166 774 210 781 222 5 7 9 295 9 639 l0 625 92 18 c51 10 98 22 105 28 27 22
9 69 -106 288 -88 168 -124 228 -144 238 -25 12 -120 37 -897 237 -206 53
-382 98 -391 101 -8 2 -17 2 -20 0z m-17 -333 l-3 -270 -139 -22 -139 -23 -82
27 c-58 20 -77 30 -68 37 9 5 4 6 -15 2 -22 -5 -27 -4 -21 6 5 9 4 11 -4 6 -6
-4 -225 63 -487 149 -261 87 -477 155 -480 153 -2 -3 60 -28 138 -56 284 -101
696 -245 843 -294 83 -28 151 -52 153 -53 4 -3 -286 -465 -303 -483 -10 -11
-68 11 -316 117 -167 71 -376 159 -464 195 -330 137 -356 149 -352 160 16 41
262 412 277 418 10 4 221 34 467 68 668 90 820 111 908 124 44 7 82 12 85 10
3 -1 4 -123 2 -271z m151 247 c62 -16 220 -56 352 -90 132 -33 299 -76 370
-95 72 -19 189 -49 260 -67 l130 -32 -45 -8 c-25 -5 -55 -7 -67 -5 -12 2 -21
1 -18 -2 2 -4 -69 -20 -158 -35 -89 -16 -232 -42 -317 -58 -85 -17 -174 -31
-196 -32 -23 0 -40 -4 -37 -8 2 -5 -6 -8 -19 -8 -13 0 -102 -16 -198 -35 -96
-19 -176 -35 -177 -35 -2 0 -3 122 -3 270 0 149 3 270 6 270 3 0 56 -13 117
-30z m1275 -517 c79 -151 110 -218 101 -223 -6 -4 -50 -15 -98 -24 -153 -30
-1072 -234 -1349 -299 l-103 -25 -115 227 c-63 124 -113 221 -112 214 2 -7 50
-111 108 -232 77 -162 110 -221 122 -221 24 0 450 90 898 190 201 45 384 85
408 89 l42 8 0 -623 c0 -343 -2 -624 -5 -624 -3 0 -256 -68 -562 -150 -307
-83 -643 -173 -748 -201 -104 -28 -212 -57 -238 -64 l-48 -14 7 947 c4 521 8
949 10 951 2 2 196 39 431 82 236 43 577 107 758 143 182 35 341 64 355 65 23
1 36 -20 138 -216z m-1720 -1497 l-3 -466 -585 278 -585 278 -3 588 c-2 470 0
587 10 583 7 -3 201 -84 431 -180 l418 -175 23 32 c12 17 83 125 157 239 l134
208 3 -460 c1 -253 1 -669 0 -925z"/>
<path d="M2289 7695 c-11 -17 -11 -313 0 -319 17 -11 24 79 15 206 -5 68 -12
119 -15 113z"/>
<path d="M875 7193 c28 -28 485 -223 485 -208 0 10 -163 86 -310 145 -192 77
-187 75 -175 63z"/>
<path d="M3095 7009 c-148 -31 -448 -107 -429 -108 23 -2 501 99 559 118 89
28 32 24 -130 -10z"/>
<path d="M3010 5700 c-101 -25 -463 -130 -469 -135 -8 -8 2 -6 251 54 261 64
376 100 323 100 -16 0 -64 -9 -105 -19z"/>
<path d="M1019 6415 c-5 -209 -1 -324 12 -304 10 17 10 352 0 424 -5 37 -9 5
-12 -120z"/>
<path d="M1765 3790 c-346 -38 -657 -72 -690 -77 l-60 -8 -113 -193 -114 -193
2 -885 c0 -486 3 -891 6 -898 3 -8 98 -58 212 -112 114 -54 375 -177 580 -275
205 -98 385 -180 400 -183 18 -4 218 43 607 144 319 83 686 178 815 211 129
33 241 66 248 73 9 9 13 207 18 896 l6 885 -72 170 c-39 94 -92 218 -116 277
-25 58 -52 109 -61 112 -8 4 -113 -7 -232 -24 -362 -50 -773 -101 -777 -97 -2
2 18 44 46 93 71 126 66 155 -24 153 -28 -1 -334 -32 -681 -69z m637 -100
c-45 -84 -72 -122 -86 -125 -12 -2 -129 -18 -261 -35 -132 -17 -243 -35 -247
-38 -4 -4 1 -35 11 -69 l19 -61 -77 -6 c-42 -3 -233 -15 -426 -27 -192 -11
-375 -25 -405 -29 -47 -7 -41 -8 35 -5 525 25 877 37 885 29 8 -9 130 -396
130 -414 0 -5 -37 5 -82 22 -97 35 -601 209 -870 300 -104 34 -188 66 -188 69
0 9 190 331 205 347 8 9 115 25 326 47 173 19 427 46 564 60 138 15 300 33
360 40 61 7 124 13 142 14 l31 1 -66 -120z m1033 -60 c12 -30 57 -137 99 -238
42 -100 76 -187 76 -192 0 -5 -24 -13 -52 -19 -83 -17 -540 -102 -1048 -196
-256 -47 -472 -88 -481 -91 -14 -4 -27 27 -72 168 -30 95 -63 200 -72 233 -10
33 -26 86 -36 118 -13 43 -15 59 -6 61 19 5 733 103 1068 146 168 22 346 46
395 54 49 7 93 13 98 12 4 -1 18 -26 31 -56z m-2293 -456 c266 -96 554 -198
777 -275 46 -16 87 -27 90 -24 12 7 1612 297 1616 293 2 -2 0 -394 -3 -873
l-7 -870 -50 -11 c-27 -6 -189 -48 -360 -92 -170 -44 -407 -106 -525 -136
-118 -31 -314 -82 -436 -114 l-221 -58 -6 441 c-4 242 -8 645 -9 895 -1 406
-2 430 -9 225 -3 -126 -7 -528 -8 -892 0 -365 -3 -663 -6 -663 -7 0 -1129 531
-1137 539 -10 9 -15 1721 -6 1721 5 0 140 -48 300 -106z"/>
<path d="M1048 3517 c-54 -74 -72 -106 -63 -115 3 -4 15 4 26 18 23 29 90 152
86 157 -2 1 -24 -25 -49 -60z"/>
<path d="M2918 3175 c-128 -18 -582 -109 -569 -113 13 -4 370 52 506 80 55 11
112 23 128 25 23 5 52 25 30 22 -4 -1 -47 -7 -95 -14z"/>
<path d="M916 2438 c-9 -78 -6 -480 4 -503 5 -12 9 98 9 268 1 158 -1 287 -3
287 -2 0 -6 -24 -10 -52z"/>
<path d="M2935 1361 c-95 -20 -496 -133 -491 -138 2 -2 93 17 202 42 197 45
350 89 369 106 5 5 7 9 5 8 -3 -1 -41 -9 -85 -18z"/>
<path d="M5010 3575 c-605 -95 -726 -117 -738 -132 -21 -28 -13 -1767 8 -1787
8 -8 143 -74 300 -146 157 -73 424 -197 593 -276 175 -82 320 -144 337 -144
16 0 244 56 507 124 263 69 617 161 787 205 170 44 316 87 324 95 12 12 15
146 19 900 3 487 2 897 -1 910 -5 20 -19 28 -73 45 -117 35 -706 182 -722 180
-9 -1 -23 1 -31 4 -20 9 -566 137 -576 136 -5 -1 -335 -52 -734 -114z m1008 0
c128 -30 240 -55 249 -55 10 0 13 -3 7 -8 -5 -5 -81 -21 -169 -36 -88 -15
-225 -41 -305 -56 -80 -16 -302 -59 -495 -95 -317 -60 -386 -75 -345 -75 16 0
739 127 1142 200 l267 48 308 -78 c169 -43 321 -81 337 -84 15 -4 27 -9 25
-11 -2 -2 -215 -42 -474 -90 -258 -47 -597 -111 -751 -141 -155 -30 -290 -54
-300 -54 -10 0 -66 15 -124 34 -58 19 -233 75 -390 126 -157 50 -340 110 -408
132 -68 22 -125 38 -128 36 -2 -3 230 -83 516 -179 l520 -174 0 -939 c0 -747
-3 -937 -12 -933 -24 10 -982 457 -1074 501 l-91 44 -6 293 c-4 162 -7 549 -7
861 l0 566 33 8 c77 18 1404 221 1422 218 11 -2 125 -29 253 -59z m1079 -707
c-4 -244 -7 -641 -7 -883 l0 -440 -112 -29 c-144 -36 -345 -88 -728 -187 -574
-149 -695 -180 -712 -185 -17 -5 -18 44 -18 935 0 518 4 941 8 941 22 0 871
157 1322 244 124 24 231 44 239 45 12 1 13 -64 8 -441z"/>
<path d="M5300 3519 c-103 -16 -435 -87 -410 -88 14 -1 62 6 107 14 45 7 120
19 165 25 81 11 249 48 257 56 7 6 -58 3 -119 -7z"/>
<path d="M4365 3395 c17 -8 37 -14 45 -14 8 0 0 6 -19 14 -42 19 -66 18 -26 0z"/>
<path d="M6615 3315 c-44 -7 -138 -27 -210 -43 -71 -17 -147 -34 -168 -38 -20
-3 -39 -9 -42 -13 -5 -9 289 41 413 70 50 12 92 26 92 30 0 5 -1 8 -2 8 -2 -1
-39 -7 -83 -14z"/>
<path d="M4397 2693 c-12 -11 -8 -563 3 -563 6 0 10 102 10 285 0 157 -1 285
-3 285 -2 0 -7 -3 -10 -7z"/>
<path d="M6430 1485 c-58 -12 -163 -39 -235 -58 -71 -20 -172 -47 -224 -61
-51 -14 -96 -28 -100 -31 -3 -4 5 -4 19 -1 14 4 133 31 265 60 223 51 405 101
405 111 0 8 -18 5 -130 -20z"/>
<path d="M8590 3578 c-422 -63 -744 -115 -756 -123 -21 -14 -21 -14 -28 -883
-5 -479 -5 -880 -1 -892 5 -16 44 -40 144 -87 75 -36 342 -164 593 -284 264
-127 469 -219 485 -219 15 0 170 36 343 80 173 44 532 135 798 202 266 66 490
127 498 135 12 12 14 148 14 916 0 496 -4 908 -8 915 -10 15 -44 25 -527 153
-209 56 -461 123 -560 150 -99 27 -198 49 -220 48 -22 -1 -371 -50 -775 -111z
m951 22 c83 -22 157 -40 165 -40 8 0 14 -3 14 -7 0 -5 -213 -43 -473 -86 -259
-43 -591 -100 -737 -126 l-265 -48 -182 61 c-155 52 -179 62 -155 69 15 4 198
32 407 63 514 75 833 122 935 138 124 20 127 20 291 -24z m264 -71 c27 -7 42
-16 38 -22 -3 -6 -1 -7 6 -3 17 11 73 -3 65 -16 -5 -7 -2 -8 6 -3 6 4 29 3 49
-3 20 -6 101 -27 181 -46 276 -69 435 -114 420 -119 -8 -3 -69 -14 -135 -25
-66 -11 -411 -73 -766 -138 l-647 -117 -237 78 c-130 42 -235 79 -233 80 2 2
152 31 333 65 182 33 495 92 696 131 202 38 370 69 374 69 5 0 6 2 3 5 -3 3
-132 -17 -288 -45 -155 -28 -289 -49 -297 -46 -8 3 -12 2 -9 -2 6 -10 -750
-146 -770 -138 -8 3 -13 2 -10 -3 3 -4 -14 -11 -39 -14 -34 -5 -64 1 -142 28
-54 19 -95 34 -91 35 15 0 369 60 508 85 334 60 929 171 938 174 2 0 23 -4 47
-10z m-1618 -233 l53 -17 2 -162 3 -161 120 -43 c66 -23 127 -42 135 -42 14
-1 15 20 13 154 -2 124 0 155 11 155 20 0 480 -161 486 -170 3 -4 4 -427 2
-938 l-2 -931 -168 81 c-177 85 -233 112 -652 313 -146 70 -283 134 -304 143
l-39 15 6 591 c4 325 7 711 7 858 l0 267 138 -48 c75 -26 161 -56 189 -65z
m2443 -876 l0 -879 -37 -10 c-21 -5 -245 -62 -498 -125 -253 -63 -593 -149
-755 -190 -161 -42 -295 -74 -297 -73 -1 2 -3 423 -3 937 l-2 935 49 8 c70 11
989 180 1258 231 127 24 242 44 258 45 l27 1 0 -880z m-2142 626 l3 -148 -23
8 c-49 15 -78 31 -71 38 4 4 1 5 -7 1 -8 -3 -37 3 -65 14 l-50 19 -3 144 -3
145 108 -37 108 -37 3 -147z"/>
<path d="M9060 3550 c-120 -19 -478 -87 -495 -94 -25 -10 33 -4 246 29 196 30
390 66 424 80 26 10 -71 1 -175 -15z"/>
<path d="M7920 2770 c-9 -148 -10 -554 -2 -590 13 -57 20 173 13 440 -5 166
-8 210 -11 150z"/>
<path d="M9995 1475 c-120 -26 -548 -143 -526 -144 48 -3 616 140 635 159 6 6
8 10 6 9 -3 0 -54 -11 -115 -24z"/>
<path d="M8306 3122 c-7 -64 0 -116 15 -106 11 7 12 135 0 152 -5 9 -11 -8
-15 -46z"/>
</g>
</svg>
